<!-- arts by Kelsey Armstrong from the Noun Project -->
<svg xmlns="http://www.w3.org/2000/svg" viewBox="0 0 500 500"><switch><g fill="#fff"><path d="M389.2 138.3l24.6 24.9-13.4 16.7-27.7-28zM418.8 156.9l-23.6-23.5 8.9-7.3c-1-3-1.7-6.3-1.9-9.7-1.1-19.6 10.2-38.5 27.7-47.2 11-5.5 22.4-5.6 34.4-5 11.6.6 25.1.6 33.8-8.1.7-.2 1.8.2 1.9.8-1.3 22.2-7.3 44.3-18.3 63.7-9.2 16.3-25.4 30.1-45.2 29.3-3.7-.2-7.3-.9-10.6-2l-7.1 9zM457.6 160.5c-.1-1.5-.3-3.1-.5-4.6-6.1 3.1-12.8 5.1-19.9 5.6 0 .2.1.5.1.7 1 11.2-7.3 21.1-18.5 22.1-3.6.3-7-.4-10-1.7-20.8 25.4-42.4 50.2-65.2 73.7-3.1 3.2-6.2 6.3-9.3 9.4 3.2 3.3 5.3 7.6 5.7 12.5 1 11.2-7.3 21.1-18.5 22.1-6.7.6-12.9-2.2-17.1-6.9-9 7.8-18 15.6-26.3 24.1 14.4 3.3 29.6 4.4 45.2 3.1 81.1-7.1 141.3-78.8 134.3-160.1zm-63.6 102c-11.2 1-21.1-7.3-22.1-18.5s7.3-21.1 18.6-22.1c11.2-1 21.1 7.3 22.1 18.6.9 11.1-7.4 21-18.6 22zM231.3 5.4c-2-2.9-5.2-4.8-8.7-5.3-2.1-.3-4.2 0-6.1.7-1.3.5-2.6 1.2-3.7 2.1-23.9 20-46.7 35.7-94.4 53.7s-75.3 21.3-106.5 22c-1.4 0-2.8.3-4.2.8-1.9.7-3.7 1.9-5.1 3.5-2.3 2.7-3.5 6.2-3.1 9.7 2.6 23.4 7 48 16.1 72 42 111.5 123.3 184 201.5 154.6s91.5-137.6 49.5-249.1c-9-24-21.9-45.4-35.3-64.7zM66.4 163.5c-1.2-10.6 10.7-20.6 26.4-22.3 15.8-1.7 30.5 15.4 31.7 26 1.2 10.6-12.5 4.1-28.2 5.9-15.8 1.7-28.8 1-29.9-9.6zm136.4 117.6c-32 12-66.2-.4-78.3-32.4-1.6-4.2-2.5-8.4-3.1-12.6-.1-1.2.3-2.3 1.2-3.1.9-.7 2.1-.9 3.2-.6 14.5 5.1 38.4 11.6 59.9 3.5s35.2-28.7 42.7-42.1c.6-1 1.6-1.7 2.8-1.7 1.2 0 2.3.5 2.9 1.5 2.4 3.5 4.4 7.3 6 11.5 12.2 32-5.3 64-37.3 76zm8.3-152.6c-13.1 8.9-19.3 22.7-25.3 13.8-6-8.8-5.8-31.5 7.3-40.4 13.1-8.9 28.6-9 34.6-.1s-3.5 17.8-16.6 26.7z"/><path d="M367.5 156.7c-13.6 13.1-39.3 38-64.8 63.8-6.3 45.4-27.3 81.1-64.3 97.9.3.4.7.7 1 1.1 2.4 2.3 7 6.1 10.2 7.1 13.1 4 113.4-107.5 145.8-141.6l-27.9-28.3zM298.6 27.4c-15.2 2.3-25.9 6-33.3 10.6 6 10.8 11.5 22.1 16 34.1 17.4 46.2 25.3 91.8 23 131.5 11.7-10.9 23.7-21.5 35.2-32.7 16.1-15.7 32.3-31.3 50.7-44.2-.3-1.8-.5-3.6-.6-5.5-.2-3.5-.1-7 .4-10.5-2.4 1.3-5 2.1-7.9 2.4-11.2 1-21.1-7.3-22.1-18.5s7.3-21.1 18.6-22.1c9.1-.8 17.3 4.5 20.6 12.5 4.2-6.6 9.5-12.5 15.9-17.2-30-30.2-71.9-47.1-116.5-40.4zM315 84.6c-11.4-1.5-19.5-12-18-23.4 1.5-11.4 12-19.5 23.4-18 11.4 1.5 19.5 12 18 23.4-1.5 11.5-12 19.6-23.4 18z"/></g></switch></svg>