<!-- Language by angelina from the Noun Project -->
<svg xmlns="http://www.w3.org/2000/svg" viewBox="0 0 846.66 846.66" fill-rule="evenodd" clip-rule="evenodd" shape-rendering="geometricPrecision" text-rendering="geometricPrecision" image-rendering="optimizeQuality"><path d="M415.22 192.31l-105.23-62.86H98.55v477.36h213.31l103.36 62.87V192.31zM61.04 227.3v404.14h239.33l74.9 46.57h96.11l74.89-46.57h239.34V227.3h-23.58v-39.2h62.78v482.53H552.24l-74.9 46.57H369.32l-74.91-46.57H21.85V188.1h62.78v39.2H61.04zm500.61 28.14h125.17v27.82H561.65v-27.82zM513.79 411.9h173.03v27.83H513.79V411.9zm0-52.15h173.03v27.83H513.79v-27.83zm0-52.15h173.03v27.83H513.79V307.6zM354.88 478.35h-27.25l-10.8-28.44h-50.1l-10.37 28.44H229.6l48.5-124.92h26.72l50.06 124.92zM151.63 289.6h56.45v-24.64h27.14v24.64h56.44v27.14h-23.97l-37.82 34.02 36.15 21.32-9.94 25.59-47.32-27.91L160.69 413l-18.13-20.15 84.62-76.11h-75.55V289.6zm157.01 139.2l-17.37-46.23-16.86 46.23h34.23zm122.78-236.49l105.26-62.86h211.44v477.36H534.81l-103.39 62.87V192.31z" fill="#fff"/></svg>