<!-- Mail by Lakshisha from the Noun Project -->
<svg xmlns="http://www.w3.org/2000/svg" data-name="Layer 1" viewBox="0 0 512 512"><g data-name="Group" fill="#fff"><path data-name="Path" d="M67.263 141.691a21.764 21.764 0 00-2.263 10v208.617a21.775 21.775 0 001.774 8.983l104.672-135.256zM280.955 286.6a38.028 38.028 0 01-50.375-.059L183.3 244.6 78.127 380.415A21.792 21.792 0 0086.7 382h338.6a21.769 21.769 0 009.14-1.845L327.5 245.457z"/><path data-name="Path" d="M270.357 274.7L432.8 131.163a21.826 21.826 0 00-7.5-1.163H86.7a21.84 21.84 0 00-7.511 1.187l162.004 143.461a22.024 22.024 0 0029.164.052zM339.505 234.849L445.49 368.684a21.789 21.789 0 001.51-8.376V151.692a21.761 21.761 0 00-2.268-10.01z"/></g></svg>