<!-- License by Hoeda from the Noun Project -->
<svg fill="#fff" xmlns="http://www.w3.org/2000/svg" viewBox="0 0 100 100"><path d="M21.6 22C24.9 12.5 34 2.3 49.3 2.3c15.5 0 24.5 10.3 27.8 19.9 9.6 27.9-23.2 51.1-46.2 32.6C21 46.9 17.3 34 21.6 22z"/><path d="M21 89.9l9.7-31.2c5.2 3.6 11.6 5.7 18.2 5.8l.4 20.7.2 10.3c0 1.4-1.3 2.5-2.7 2.2l-24.2-4.9c-1.2-.4-2-1.7-1.6-2.9zM56.9 88.7c-5.3-18.8-4.6-15-4.8-24.3 5.6-.5 11.3-2.6 15.8-5.7l12 20.4c.7 1.2.2 2.7-1.1 3.2l-18.9 7.9c-1.2.4-2.6-.3-3-1.5z"/></svg>