<!-- Phone by Aulia from the Noun Project -->
<svg xmlns="http://www.w3.org/2000/svg" viewBox="0 0 100 100" fill-rule="evenodd" clip-rule="evenodd" shape-rendering="geometricPrecision" text-rendering="geometricPrecision" image-rendering="optimizeQuality"><path d="M39.716 32.18c3.167-.767 5.762-1.666 5.465-3.545L42.08 8.967c-.523-3.317-3.207-4.506-6.752-3.748l4.388 26.962zm-2.103.565L33.21 5.695c-8.494 2.07-9.537 3.165-15.208 11.138-5.052 7.101 1.156 27.368 11.14 45.66C39.99 80.285 54.439 95.794 63.115 94.97c9.742-.925 11.21-1.28 17.25-7.6L59.14 70.03c-7.897 5.542-30.274-33.217-21.527-37.285zM60.68 68.491c2.248-2.358 4.324-4.157 5.804-2.96l15.482 12.52c2.61 2.111 2.3 5.03-.13 7.721L60.68 68.492z" fill="#fff"/></svg>