<!-- Fire by Chintuza from the Noun Project -->
<svg xmlns="http://www.w3.org/2000/svg" viewBox="0 0 36 36"><g fill="#fff" data-name="Слой 5"><path d="M20.66 25.78h-5.3a.6.6 0 00-.43.2.59.59 0 00-.12.46l1.41 7.48a.56.56 0 00.55.45h2.5a.56.56 0 00.55-.45l1.39-7.48a.55.55 0 00-.12-.46.58.58 0 00-.43-.2zM21.39 20.91L21 21l-.21.06h-.12a8.22 8.22 0 01-1.27.28h-.14a10.08 10.08 0 01-2.63 0h-.14a8.8 8.8 0 01-1.19-.26h-.11l-.61-.2a.56.56 0 00-.54.11.54.54 0 00-.18.52l.52 2.78a.56.56 0 00.55.46h6.1a.56.56 0 00.55-.46l.52-2.78A.56.56 0 0022 21a.57.57 0 00-.61-.09z"/><path d="M22.11 1.86a.57.57 0 00-.62-.21.56.56 0 00-.39.52c-.1 2.43-.67 4.23-1.7 5.35a4.15 4.15 0 01-3.19 1.33 5.13 5.13 0 01-4.11-2.44.56.56 0 00-.5-.24.58.58 0 00-.46.32c-2.14 4.55-2 8.29.47 11.1a9.11 9.11 0 001.67 1.48 8.4 8.4 0 0011.1-1.46c3.25-3.75 2.46-9.18-2.27-15.75z"/></g></svg>